<svg width="14" height="14" viewBox="0 0 14 14" fill="none" xmlns="http://www.w3.org/2000/svg">
<path fill-rule="evenodd" clip-rule="evenodd" d="M1.94444 0C1.42875 0 0.934169 0.20486 0.569515 0.569515C0.20486 0.934169 0 1.42875 0 1.94444V13.5C0 13.7022 0.121821 13.8845 0.308658 13.9619C0.495495 14.0393 0.710554 13.9966 0.853553 13.8536L3.70711 11H12.0556C12.5713 11 13.0658 10.7951 13.4305 10.4305C13.7951 10.0658 14 9.57125 14 9.05556V1.94444C14 1.42875 13.7951 0.934169 13.4305 0.569515C13.0658 0.20486 12.5713 0 12.0556 0H1.94444ZM7.5 3C7.5 2.72386 7.27614 2.5 7 2.5C6.72386 2.5 6.5 2.72386 6.5 3V5.5C6.5 5.77614 6.72386 6 7 6C7.27614 6 7.5 5.77614 7.5 5.5V3ZM7.5 8C7.5 7.72386 7.27614 7.5 7 7.5C6.72386 7.5 6.5 7.72386 6.5 8V8.01C6.5 8.28614 6.72386 8.51 7 8.51C7.27614 8.51 7.5 8.28614 7.5 8.01V8Z" fill="#303233"/>
</svg>
