<svg width="64" height="64" viewBox="0 0 64 64" fill="none" xmlns="http://www.w3.org/2000/svg">
<rect width="64" height="64" rx="12" fill="#F23433"/>
<path d="M32 6C26.8577 6 21.8309 7.52484 17.5552 10.3818C13.2795 13.2387 9.94701 17.2993 7.97913 22.0502C6.01126 26.8011 5.49638 32.0288 6.4996 37.0723C7.50281 42.1158 9.97906 46.7486 13.6152 50.3848C17.2514 54.0209 21.8841 56.4972 26.9277 57.5004C31.9712 58.5036 37.1989 57.9887 41.9498 56.0208C46.7006 54.053 50.7613 50.7205 53.6182 46.4448C56.4751 42.1691 58 37.1423 58 32C58 25.1044 55.2607 18.4912 50.3848 13.6152C45.5088 8.7393 38.8956 6 32 6ZM45.4967 41.1921C45.4967 41.4028 45.413 41.6049 45.2639 41.754C45.1149 41.903 44.9127 41.9867 44.702 41.9867H41.298C41.0872 41.9867 40.8851 41.903 40.7361 41.754C40.587 41.6049 40.5033 41.4028 40.5033 41.1921V30.7417C40.5027 30.722 40.4966 30.7029 40.4858 30.6865C40.4749 30.6701 40.4597 30.657 40.4418 30.6487C40.4239 30.6405 40.4041 30.6374 40.3845 30.6398C40.365 30.6422 40.3465 30.6499 40.3311 30.6622L33.1391 37.8675C32.8386 38.1676 32.4313 38.3362 32.0066 38.3362C31.582 38.3362 31.1747 38.1676 30.8742 37.8675L23.6821 30.6622C23.6668 30.6499 23.6483 30.6422 23.6287 30.6398C23.6092 30.6374 23.5893 30.6405 23.5714 30.6487C23.5536 30.657 23.5383 30.6701 23.5275 30.6865C23.5166 30.7029 23.5105 30.722 23.5099 30.7417V41.1921C23.5099 41.4028 23.4262 41.6049 23.2772 41.754C23.1281 41.903 22.926 41.9867 22.7152 41.9867H19.3113C19.1005 41.9867 18.8984 41.903 18.7493 41.754C18.6003 41.6049 18.5166 41.4028 18.5166 41.1921V22.7947C18.5166 22.5839 18.6003 22.3818 18.7493 22.2328C18.8984 22.0837 19.1005 22 19.3113 22H21.6424C22.0675 22.0026 22.4754 22.1685 22.7814 22.4636L31.7218 31.4172C31.7998 31.488 31.9013 31.5272 32.0066 31.5272C32.1119 31.5272 32.2134 31.488 32.2914 31.4172L41.2318 22.4636C41.5379 22.1685 41.9457 22.0026 42.3709 22H44.702C44.9127 22 45.1149 22.0837 45.2639 22.2328C45.413 22.3818 45.4967 22.5839 45.4967 22.7947V41.1921Z" fill="white"/>
</svg>
